<?xml version="1.0" standalone="no"?>
<!DOCTYPE svg PUBLIC "-//W3C//DTD SVG 20010904//EN"
 "http://www.w3.org/TR/2001/REC-SVG-20010904/DTD/svg10.dtd">
<svg version="1.0" xmlns="http://www.w3.org/2000/svg"
 width="512.000000pt" height="512.000000pt" viewBox="0 0 512.000000 512.000000"
 preserveAspectRatio="xMidYMid meet">
<metadata>
Created by potrace 1.14, written by Peter Selinger 2001-2017
</metadata>
<g transform="translate(0.000000,512.000000) scale(0.100000,-0.100000)"
fill="#FBE331" stroke="none">
<path d="M2196 5088 c-8 -18 -46 -123 -86 -233 -40 -110 -95 -261 -122 -335
-28 -74 -68 -183 -89 -242 -22 -60 -57 -156 -78 -215 -203 -559 -245 -675
-262 -718 -10 -27 -48 -131 -84 -230 -135 -369 -165 -452 -200 -550 -20 -55
-40 -109 -45 -120 -4 -11 -38 -103 -75 -205 l-67 -185 -1 -298 c-1 -167 2
-301 7 -304 14 -9 598 -5 606 4 4 4 22 49 40 98 68 190 100 277 175 480 43
116 92 251 110 300 18 50 61 167 95 260 35 94 75 204 90 245 16 41 33 89 40
105 6 17 13 37 16 45 2 8 44 125 94 260 50 135 102 274 115 310 12 36 95 261
183 500 l160 435 0 313 0 312 -305 0 -304 0 -13 -32z"/>
<path d="M3448 3672 c-18 -2 -30 -12 -36 -30 -6 -15 -119 -324 -252 -687 -133
-363 -243 -664 -244 -670 -2 -5 -6 -17 -9 -25 -4 -8 -16 -42 -28 -75 -11 -33
-43 -118 -69 -190 -97 -261 -341 -932 -444 -1220 -26 -71 -50 -137 -55 -145
-5 -9 -8 -154 -8 -323 l0 -307 307 0 306 0 13 38 c8 20 35 95 61 167 27 72 94
256 150 410 56 154 105 289 110 300 5 11 36 97 70 190 34 94 65 179 70 190 5
11 63 171 131 355 67 184 159 436 205 560 45 124 133 362 195 530 l112 305 1
313 1 312 -100 1 c-55 0 -181 1 -280 2 -99 1 -192 1 -207 -1z"/>
</g>
</svg>
